<svg width="708" height="708" viewBox="0 0 708 708" fill="none" xmlns="http://www.w3.org/2000/svg">
<path d="M308.089 92.5437C304.863 64.8923 326.474 40.6133 354.313 40.6133C382.15 40.6133 403.761 64.8915 400.535 92.5424L385.43 222.018C383.585 237.819 370.192 249.73 354.283 249.714C338.4 249.699 325.041 237.797 323.198 222.019L308.089 92.5437Z" fill="#22B8FE"/>
<path d="M506.73 136.53C524.001 114.696 556.45 112.809 576.134 132.494C595.819 152.179 593.933 184.627 572.1 201.898L469.866 282.77C457.389 292.639 439.496 291.59 428.258 280.331C417.036 269.087 416.006 251.226 425.86 238.767L506.73 136.53Z" fill="#00BC08"/>
<path d="M616.069 308.081C643.72 304.855 667.998 326.466 667.998 354.305C667.998 382.143 643.72 403.753 616.069 400.527L486.594 385.422C470.792 383.58 458.881 370.184 458.896 354.275C458.914 338.392 470.816 325.033 486.592 323.19L616.069 308.081Z" fill="#22B8FE"/>
<path d="M572.11 506.703C593.944 523.975 595.831 556.424 576.147 576.108C556.463 595.794 524.014 593.907 506.742 572.073L425.871 469.84C416.002 457.363 417.051 439.469 428.31 428.232C439.554 417.012 457.415 415.98 469.873 425.836L572.11 506.703Z" fill="#00BC08"/>
<path d="M308.089 616.071C304.863 643.721 326.474 668 354.313 668C382.15 668 403.761 643.721 400.535 616.071L385.43 486.596C383.585 470.794 370.192 458.883 354.283 458.898C338.4 458.916 325.041 470.818 323.198 486.594L308.089 616.071Z" fill="#22B8FE"/>
<path d="M136.499 506.703C114.665 523.975 112.778 556.424 132.463 576.108C152.148 595.794 184.596 593.907 201.867 572.073L282.738 469.84C292.609 457.363 291.56 439.469 280.299 428.232C269.055 417.012 251.194 415.98 238.736 425.836L136.499 506.703Z" fill="#00BC08"/>
<path d="M92.5437 308.081C64.8924 304.855 40.6133 326.466 40.6133 354.305C40.6133 382.143 64.8915 403.753 92.5425 400.527L222.018 385.422C237.819 383.58 249.73 370.184 249.715 354.275C249.699 338.392 237.797 325.033 222.019 323.193L92.5437 308.081Z" fill="#22B8FE"/>
<path d="M201.879 136.53C184.609 114.696 152.16 112.809 132.475 132.494C112.79 152.179 114.676 184.627 136.51 201.898L238.744 282.77C251.221 292.639 269.113 291.59 280.351 280.331C291.573 269.087 292.603 251.226 282.749 238.767L201.879 136.53Z" fill="#00BC08"/>
</svg>
