<svg width="1833" height="708" viewBox="0 0 1833 708" fill="none" xmlns="http://www.w3.org/2000/svg">
<path d="M292.476 111.224C289.658 85.5463 308.536 63 332.855 63C357.172 63 376.05 85.5455 373.232 111.223L360.037 231.458C358.426 246.132 346.726 257.192 332.829 257.178C318.954 257.164 307.284 246.111 305.675 231.459L292.476 111.224Z" fill="#22B8FE"/>
<path d="M465.999 152.074C481.086 131.798 509.431 130.046 526.626 148.326C543.822 166.606 542.175 196.738 523.102 212.777L433.797 287.877C422.897 297.042 407.267 296.068 397.45 285.612C387.647 275.171 386.748 258.584 395.356 247.014L465.999 152.074Z" fill="#00BC08"/>
<path d="M561.51 311.379C585.664 308.383 606.872 328.451 606.872 354.304C606.872 380.155 585.664 400.223 561.51 397.227L448.408 383.2C434.605 381.489 424.2 369.05 424.213 354.276C424.228 339.526 434.625 327.121 448.406 325.41L561.51 311.379Z" fill="#22B8FE"/>
<path d="M523.11 495.829C542.183 511.867 543.832 542 526.637 560.28C509.442 578.561 481.096 576.809 466.009 556.533L395.364 461.596C386.743 450.009 387.659 433.393 397.494 422.958C407.316 412.538 422.919 411.58 433.801 420.733L523.11 495.829Z" fill="#00BC08"/>
<path d="M292.476 597.389C289.658 623.066 308.536 645.612 332.855 645.612C357.172 645.612 376.05 623.066 373.232 597.389L360.037 477.155C358.426 462.481 346.726 451.42 332.829 451.434C318.954 451.45 307.284 462.503 305.675 477.153L292.476 597.389Z" fill="#22B8FE"/>
<path d="M142.585 495.829C123.512 511.867 121.864 542 139.06 560.28C156.255 578.561 184.6 576.809 199.687 556.533L270.331 461.596C278.954 450.009 278.038 433.393 268.201 422.958C258.379 412.538 242.776 411.58 231.893 420.733L142.585 495.829Z" fill="#00BC08"/>
<path d="M104.188 311.379C80.033 308.383 58.8242 328.451 58.8242 354.304C58.8242 380.155 80.0323 400.223 104.187 397.227L217.289 383.2C231.092 381.489 241.497 369.05 241.483 354.276C241.47 339.526 231.072 327.121 217.29 325.412L104.188 311.379Z" fill="#22B8FE"/>
<path d="M199.697 152.074C184.611 131.798 156.265 130.046 139.069 148.326C121.874 166.606 123.522 196.738 142.594 212.777L231.9 287.877C242.799 297.042 258.429 296.068 268.245 285.612C278.049 275.171 278.948 258.584 270.34 247.014L199.697 152.074Z" fill="#00BC08"/>
<path d="M1252.35 408.629C1240.94 408.629 1230.91 406.53 1222.25 402.333C1213.59 398.004 1206.84 392.101 1201.98 384.624C1197.26 377.016 1194.9 368.227 1194.9 358.258C1194.9 347.239 1197.19 337.794 1201.79 329.924C1206.38 322.053 1212.48 316.019 1220.08 311.821C1227.82 307.493 1236.35 305.328 1245.66 305.328C1256.29 305.328 1265.14 307.558 1272.23 312.018C1279.44 316.478 1284.89 322.578 1288.56 330.317C1292.23 337.925 1294.07 346.648 1294.07 356.487C1294.07 358.192 1293.94 360.225 1293.67 362.586C1293.54 364.816 1293.35 366.587 1293.08 367.899H1226.97C1227.76 371.31 1229.27 374.195 1231.5 376.557C1233.73 378.918 1236.55 380.689 1239.96 381.869C1243.37 382.919 1247.17 383.443 1251.37 383.443H1282.26V408.629H1252.35ZM1226.18 348.813H1264.55C1264.29 346.714 1263.9 344.681 1263.37 342.713C1262.85 340.746 1261.99 339.04 1260.81 337.597C1259.76 336.023 1258.52 334.711 1257.08 333.662C1255.63 332.481 1253.93 331.563 1251.96 330.907C1250.12 330.252 1248.02 329.924 1245.66 329.924C1242.65 329.924 1239.96 330.448 1237.6 331.498C1235.24 332.547 1233.27 333.99 1231.69 335.826C1230.12 337.532 1228.87 339.565 1227.95 341.926C1227.17 344.156 1226.58 346.452 1226.18 348.813Z" fill="black"/>
<path d="M1089.88 448.572V422.402H1140.25C1142.22 422.402 1143.86 421.747 1145.17 420.435C1146.48 419.254 1147.14 417.746 1147.14 415.909V393.675H1146.55C1143.92 396.692 1141.1 399.25 1138.09 401.349C1135.2 403.448 1131.92 405.022 1128.25 406.071C1124.71 407.121 1120.7 407.645 1116.24 407.645C1107.32 407.645 1099.32 405.546 1092.24 401.349C1085.29 397.02 1079.78 391.051 1075.71 383.443C1071.78 375.835 1069.81 367.177 1069.81 357.47C1069.81 347.895 1071.84 339.171 1075.91 331.301C1080.11 323.43 1086.21 317.134 1094.21 312.412C1102.21 307.689 1111.98 305.328 1123.53 305.328C1134.54 305.328 1144.05 307.624 1152.06 312.215C1160.19 316.675 1166.49 323.037 1170.95 331.301C1175.41 339.434 1177.64 349.01 1177.64 360.028V419.058C1177.64 428.109 1174.95 435.258 1169.57 440.505C1164.32 445.883 1157.04 448.572 1147.73 448.572H1089.88ZM1123.72 382.066C1128.44 382.066 1132.51 381.017 1135.92 378.918C1139.33 376.688 1141.96 373.736 1143.79 370.063C1145.63 366.39 1146.55 362.324 1146.55 357.864C1146.55 353.142 1145.63 348.813 1143.79 344.878C1141.96 340.942 1139.33 337.86 1135.92 335.63C1132.51 333.269 1128.44 332.088 1123.72 332.088C1119.13 332.088 1115.06 333.203 1111.52 335.433C1108.11 337.663 1105.49 340.68 1103.65 344.484C1101.82 348.288 1100.9 352.551 1100.9 357.274C1100.9 361.865 1101.82 366.063 1103.65 369.867C1105.49 373.54 1108.11 376.491 1111.52 378.721C1115.06 380.951 1119.13 382.066 1123.72 382.066Z" fill="black"/>
<path d="M1001.88 408.63V337.401C1001.88 328.219 1004.5 321.004 1009.75 315.757C1015 310.51 1022.28 307.887 1031.59 307.887H1060.91V332.679H1039.07C1037.23 332.679 1035.66 333.335 1034.34 334.647C1033.03 335.827 1032.38 337.401 1032.38 339.369V408.63H1001.88Z" fill="black"/>
<path d="M930.05 410.99C919.687 410.99 910.374 408.695 902.109 404.103C893.845 399.512 887.287 393.216 882.433 385.214C877.711 377.212 875.35 368.227 875.35 358.258C875.35 348.157 877.711 339.171 882.433 331.301C887.287 323.299 893.845 317.003 902.109 312.412C910.374 307.689 919.687 305.328 930.05 305.328C940.413 305.328 949.661 307.689 957.794 312.412C966.058 317.003 972.551 323.299 977.273 331.301C982.127 339.171 984.553 348.157 984.553 358.258C984.553 368.227 982.127 377.212 977.273 385.214C972.551 393.216 966.058 399.512 957.794 404.103C949.529 408.695 940.282 410.99 930.05 410.99ZM930.05 384.427C934.903 384.427 939.101 383.247 942.643 380.885C946.185 378.524 948.939 375.376 950.907 371.441C952.874 367.505 953.858 363.045 953.858 358.061C953.858 353.207 952.874 348.813 950.907 344.878C948.939 340.942 946.185 337.794 942.643 335.433C939.101 333.072 934.903 331.891 930.05 331.891C925.196 331.891 920.933 333.072 917.26 335.433C913.719 337.794 910.964 340.942 908.996 344.878C907.029 348.813 906.045 353.207 906.045 358.061C906.045 363.045 907.029 367.505 908.996 371.441C910.964 375.376 913.719 378.524 917.26 380.885C920.933 383.247 925.196 384.427 930.05 384.427Z" fill="black"/>
<path d="M773.207 408.629V311.625C773.207 304.016 775.043 297.13 778.716 290.964C782.521 284.799 787.571 279.946 793.867 276.404C800.295 272.731 807.444 270.895 815.314 270.895H866.67V298.441H819.446C815.774 298.441 812.625 299.753 810.002 302.377C807.509 305 806.263 308.214 806.263 312.018V331.891H859.98V359.241H806.263V408.629H773.207Z" fill="black"/>
<path d="M1708.27 229.721C1697.9 229.721 1688.59 227.425 1680.33 222.834C1672.06 218.243 1665.5 211.946 1660.65 203.945C1655.93 195.943 1653.57 186.957 1653.57 176.988C1653.57 166.887 1655.93 157.902 1660.65 150.031C1665.5 142.03 1672.06 135.733 1680.33 131.142C1688.59 126.42 1697.9 124.059 1708.27 124.059C1718.63 124.059 1727.88 126.42 1736.01 131.142C1744.27 135.733 1750.77 142.03 1755.49 150.031C1760.34 157.902 1762.77 166.887 1762.77 176.988C1762.77 186.957 1760.34 195.943 1755.49 203.945C1750.77 211.946 1744.27 218.243 1736.01 222.834C1727.75 227.425 1718.5 229.721 1708.27 229.721ZM1708.27 203.158C1713.12 203.158 1717.32 201.977 1720.86 199.616C1724.4 197.255 1727.16 194.106 1729.12 190.171C1731.09 186.236 1732.08 181.776 1732.08 176.791C1732.08 171.938 1731.09 167.543 1729.12 163.608C1727.16 159.673 1724.4 156.525 1720.86 154.163C1717.32 151.802 1713.12 150.622 1708.27 150.622C1703.41 150.622 1699.15 151.802 1695.48 154.163C1691.94 156.525 1689.18 159.673 1687.21 163.608C1685.25 167.543 1684.26 171.938 1684.26 176.791C1684.26 181.776 1685.25 186.236 1687.21 190.171C1689.18 194.106 1691.94 197.255 1695.48 199.616C1699.15 201.977 1703.41 203.158 1708.27 203.158Z" fill="black"/>
<path d="M1585.64 227.36V156.132C1585.64 146.949 1588.26 139.735 1593.51 134.488C1598.75 129.241 1606.03 126.617 1615.35 126.617H1644.67V151.409H1622.83C1620.99 151.409 1619.41 152.065 1618.1 153.377C1616.79 154.558 1616.14 156.132 1616.14 158.099V227.36H1585.64Z" fill="black"/>
<path d="M1463.45 227.356V83.7188H1493.94V133.106C1497.88 129.958 1502.21 127.663 1506.93 126.22C1511.65 124.777 1516.37 124.055 1521.1 124.055C1530.28 124.055 1538.02 126.023 1544.32 129.958C1550.74 133.893 1555.53 139.272 1558.68 146.093C1561.96 152.914 1563.6 160.653 1563.6 169.311V227.356H1533.1V170.492C1533.1 166.687 1532.18 163.342 1530.34 160.457C1528.64 157.44 1526.28 155.078 1523.26 153.373C1520.38 151.537 1517.16 150.618 1513.62 150.618C1510.08 150.618 1506.8 151.471 1503.78 153.176C1500.76 154.882 1498.34 157.177 1496.5 160.063C1494.8 162.949 1493.94 166.228 1493.94 169.901V227.356H1463.45Z" fill="black"/>
<path d="M1416.08 227.359C1406.77 227.359 1399.49 224.736 1394.24 219.489C1389 214.111 1386.37 206.896 1386.37 197.845V101.824H1417.07V196.074C1417.07 197.648 1417.59 199.025 1418.64 200.206C1419.82 201.255 1421.2 201.78 1422.77 201.78H1444.81V227.359H1416.08ZM1369.84 151.409V126.42H1444.81V151.409H1369.84Z" fill="black"/>
<path d="M1256.11 227.36V169.314C1256.11 160.919 1258.15 153.311 1262.21 146.49C1266.28 139.669 1272.05 134.225 1279.53 130.158C1287.14 126.092 1296.12 124.059 1306.48 124.059C1316.98 124.059 1325.9 126.092 1333.24 130.158C1340.72 134.225 1346.43 139.669 1350.36 146.49C1354.3 153.311 1356.27 160.919 1356.27 169.314V227.36H1325.77V170.101C1325.77 166.56 1324.91 163.346 1323.21 160.46C1321.5 157.443 1319.14 155.082 1316.13 153.376C1313.24 151.54 1309.96 150.622 1306.29 150.622C1302.48 150.622 1299.07 151.54 1296.06 153.376C1293.17 155.082 1290.87 157.443 1289.17 160.46C1287.46 163.346 1286.61 166.56 1286.61 170.101V227.36H1256.11Z" fill="black"/>
<path d="M1170.6 229.721C1161.68 229.721 1153.8 227.425 1146.98 222.834C1140.16 218.243 1134.85 212.078 1131.05 204.338C1127.24 196.468 1125.34 187.613 1125.34 177.775C1125.34 167.543 1127.57 158.427 1132.03 150.425C1136.49 142.292 1142.79 135.864 1150.92 131.142C1159.18 126.42 1168.89 124.059 1180.04 124.059C1191.32 124.059 1200.9 126.42 1208.77 131.142C1216.77 135.733 1222.87 142.095 1227.07 150.228C1231.4 158.23 1233.56 167.215 1233.56 177.185V227.36H1203.65V211.225H1202.86C1201.03 214.767 1198.67 217.98 1195.78 220.866C1192.9 223.621 1189.35 225.785 1185.16 227.36C1181.09 228.934 1176.24 229.721 1170.6 229.721ZM1179.65 203.354C1184.24 203.354 1188.24 202.239 1191.65 200.009C1195.19 197.648 1197.88 194.434 1199.72 190.368C1201.55 186.301 1202.47 181.776 1202.47 176.791C1202.47 171.938 1201.55 167.543 1199.72 163.608C1197.88 159.673 1195.19 156.59 1191.65 154.36C1188.24 151.999 1184.24 150.818 1179.65 150.818C1174.92 150.818 1170.79 151.999 1167.25 154.36C1163.71 156.59 1161.02 159.673 1159.18 163.608C1157.35 167.543 1156.43 171.938 1156.43 176.791C1156.43 181.776 1157.35 186.301 1159.18 190.368C1161.02 194.434 1163.71 197.648 1167.25 200.009C1170.79 202.239 1174.92 203.354 1179.65 203.354Z" fill="black"/>
<path d="M1077.03 227.356V83.7188H1107.53V227.356H1077.03Z" fill="black"/>
<path d="M1023.99 227.36V126.42H1054.69V227.36H1023.99ZM1039.34 115.008C1034.49 115.008 1030.29 113.237 1026.75 109.695C1023.21 106.153 1021.44 101.956 1021.44 97.1022C1021.44 92.2487 1023.21 88.0511 1026.75 84.5094C1030.29 80.8365 1034.49 79 1039.34 79C1044.19 79 1048.39 80.8365 1051.93 84.5094C1055.48 88.0511 1057.25 92.2487 1057.25 97.1022C1057.25 101.956 1055.48 106.153 1051.93 109.695C1048.39 113.237 1044.19 115.008 1039.34 115.008Z" fill="black"/>
<path d="M901.018 227.356V83.7188H931.516V133.106C935.451 129.958 939.78 127.663 944.502 126.22C949.225 124.777 953.947 124.055 958.669 124.055C967.852 124.055 975.591 126.023 981.887 129.958C988.315 133.893 993.103 139.272 996.251 146.093C999.531 152.914 1001.17 160.653 1001.17 169.311V227.356H970.672V170.492C970.672 166.687 969.754 163.342 967.917 160.457C966.212 157.44 963.851 155.078 960.834 153.373C957.948 151.537 954.734 150.618 951.192 150.618C947.651 150.618 944.371 151.471 941.354 153.176C938.337 154.882 935.91 157.177 934.074 160.063C932.369 162.949 931.516 166.228 931.516 169.901V227.356H901.018Z" fill="black"/>
<path d="M774.979 227.36V89.625H834.204C843.387 89.625 851.782 91.7238 859.39 95.9214C867.129 100.119 873.295 105.956 877.886 113.433C882.477 120.779 884.773 129.306 884.773 139.013C884.773 148.72 882.477 157.377 877.886 164.985C873.295 172.462 867.195 178.3 859.587 182.497C851.979 186.695 843.518 188.794 834.204 188.794H808.035V227.36H774.979ZM808.035 161.05H830.466C834.401 161.05 837.943 160.198 841.091 158.492C844.239 156.787 846.797 154.295 848.765 151.015C850.733 147.736 851.716 143.801 851.716 139.209C851.716 134.618 850.733 130.683 848.765 127.404C846.797 124.124 844.174 121.632 840.894 119.927C837.746 118.09 834.27 117.172 830.466 117.172H808.035V161.05Z" fill="black"/>
<path d="M1599.12 632.72C1592.33 632.72 1585.77 631.872 1579.43 630.174C1573.17 628.566 1567.95 626.11 1563.75 622.804L1572.06 607.796C1575.09 610.298 1578.93 612.263 1583.58 613.692C1588.31 615.211 1592.96 615.97 1597.52 615.97C1604.93 615.97 1610.29 614.318 1613.6 611.012C1616.99 607.707 1618.69 602.794 1618.69 596.272V585.418L1620.03 567.328L1619.76 549.104V533.56H1639.59V593.592C1639.59 606.992 1636.11 616.864 1629.14 623.206C1622.17 629.549 1612.17 632.72 1599.12 632.72ZM1595.91 602.168C1589.21 602.168 1583.13 600.739 1577.68 597.88C1572.32 594.932 1567.99 590.868 1564.69 585.686C1561.47 580.416 1559.86 574.296 1559.86 567.328C1559.86 560.271 1561.47 554.152 1564.69 548.97C1567.99 543.7 1572.32 539.635 1577.68 536.776C1583.13 533.918 1589.21 532.488 1595.91 532.488C1601.98 532.488 1607.34 533.739 1611.99 536.24C1616.63 538.652 1620.25 542.449 1622.84 547.63C1625.43 552.722 1626.73 559.288 1626.73 567.328C1626.73 575.279 1625.43 581.845 1622.84 587.026C1620.25 592.118 1616.63 595.915 1611.99 598.416C1607.34 600.918 1601.98 602.168 1595.91 602.168ZM1600.06 585.016C1603.72 585.016 1606.98 584.302 1609.84 582.872C1612.7 581.354 1614.94 579.254 1616.54 576.574C1618.15 573.894 1618.96 570.812 1618.96 567.328C1618.96 563.755 1618.15 560.673 1616.54 558.082C1614.94 555.402 1612.7 553.348 1609.84 551.918C1606.98 550.4 1603.72 549.64 1600.06 549.64C1596.4 549.64 1593.14 550.4 1590.28 551.918C1587.42 553.348 1585.14 555.402 1583.45 558.082C1581.84 560.673 1581.03 563.755 1581.03 567.328C1581.03 570.812 1581.84 573.894 1583.45 576.574C1585.14 579.254 1587.42 581.354 1590.28 582.872C1593.14 584.302 1596.4 585.016 1600.06 585.016Z" fill="#00BD08"/>
<path d="M1510.51 532.488C1516.22 532.488 1521.32 533.65 1525.78 535.972C1530.34 538.206 1533.91 541.69 1536.5 546.424C1539.09 551.07 1540.39 557.055 1540.39 564.38V605.652H1519.49V567.596C1519.49 561.79 1518.19 557.502 1515.6 554.732C1513.1 551.963 1509.52 550.578 1504.88 550.578C1501.57 550.578 1498.58 551.293 1495.9 552.722C1493.31 554.062 1491.26 556.162 1489.74 559.02C1488.31 561.879 1487.59 565.542 1487.59 570.008V605.652H1466.69V533.56H1486.66V553.526L1482.9 547.496C1485.49 542.672 1489.2 538.965 1494.03 536.374C1498.85 533.784 1504.34 532.488 1510.51 532.488Z" fill="#00BD08"/>
<path d="M1421.02 605.653V533.561H1441.93V605.653H1421.02ZM1431.48 523.511C1427.64 523.511 1424.51 522.395 1422.1 520.161C1419.68 517.928 1418.48 515.159 1418.48 511.853C1418.48 508.548 1419.68 505.779 1422.1 503.545C1424.51 501.312 1427.64 500.195 1431.48 500.195C1435.32 500.195 1438.44 501.267 1440.86 503.411C1443.27 505.466 1444.47 508.146 1444.47 511.451C1444.47 514.935 1443.27 517.839 1440.86 520.161C1438.53 522.395 1435.41 523.511 1431.48 523.511Z" fill="#00BD08"/>
<path d="M1368.73 606.724C1362.57 606.724 1356.63 606.01 1350.91 604.58C1345.28 603.062 1340.81 601.186 1337.51 598.952L1344.48 583.944C1347.78 585.999 1351.67 587.696 1356.13 589.036C1360.69 590.287 1365.16 590.912 1369.53 590.912C1374.36 590.912 1377.75 590.332 1379.72 589.17C1381.77 588.009 1382.8 586.401 1382.8 584.346C1382.8 582.649 1382 581.398 1380.39 580.594C1378.87 579.701 1376.81 579.031 1374.22 578.584C1371.63 578.138 1368.77 577.691 1365.65 577.244C1362.61 576.798 1359.53 576.217 1356.4 575.502C1353.28 574.698 1350.42 573.537 1347.83 572.018C1345.24 570.5 1343.14 568.445 1341.53 565.854C1340.01 563.264 1339.25 559.914 1339.25 555.804C1339.25 551.248 1340.55 547.228 1343.14 543.744C1345.82 540.26 1349.66 537.536 1354.66 535.57C1359.66 533.516 1365.65 532.488 1372.62 532.488C1377.53 532.488 1382.53 533.024 1387.62 534.096C1392.72 535.168 1396.96 536.732 1400.35 538.786L1393.39 553.66C1389.9 551.606 1386.37 550.221 1382.8 549.506C1379.32 548.702 1375.92 548.3 1372.62 548.3C1367.97 548.3 1364.58 548.926 1362.43 550.176C1360.29 551.427 1359.22 553.035 1359.22 555C1359.22 556.787 1359.98 558.127 1361.49 559.02C1363.1 559.914 1365.2 560.628 1367.79 561.164C1370.38 561.7 1373.2 562.192 1376.23 562.638C1379.36 562.996 1382.49 563.576 1385.61 564.38C1388.74 565.184 1391.55 566.346 1394.06 567.864C1396.65 569.294 1398.75 571.304 1400.35 573.894C1401.96 576.396 1402.77 579.701 1402.77 583.81C1402.77 588.277 1401.43 592.252 1398.75 595.736C1396.07 599.131 1392.18 601.811 1387.09 603.776C1382.09 605.742 1375.97 606.724 1368.73 606.724Z" fill="#00BD08"/>
<path d="M1298.81 605.653V533.561H1319.72V605.653H1298.81ZM1309.26 523.511C1305.42 523.511 1302.3 522.395 1299.88 520.161C1297.47 517.928 1296.27 515.159 1296.27 511.853C1296.27 508.548 1297.47 505.779 1299.88 503.545C1302.3 501.312 1305.42 500.195 1309.26 500.195C1313.1 500.195 1316.23 501.267 1318.64 503.411C1321.06 505.466 1322.26 508.146 1322.26 511.451C1322.26 514.935 1321.06 517.839 1318.64 520.161C1316.32 522.395 1313.19 523.511 1309.26 523.511Z" fill="#00BD08"/>
<path d="M1254.97 605.652V591.582L1253.63 588.5V563.308C1253.63 558.842 1252.24 555.358 1249.47 552.856C1246.79 550.355 1242.64 549.104 1237.01 549.104C1233.17 549.104 1229.37 549.73 1225.62 550.98C1221.96 552.142 1218.83 553.75 1216.24 555.804L1208.74 541.198C1212.67 538.429 1217.4 536.285 1222.94 534.766C1228.48 533.248 1234.11 532.488 1239.83 532.488C1250.81 532.488 1259.35 535.079 1265.42 540.26C1271.5 545.442 1274.53 553.526 1274.53 564.514V605.652H1254.97ZM1232.99 606.724C1227.36 606.724 1222.54 605.786 1218.52 603.91C1214.5 601.945 1211.42 599.31 1209.27 596.004C1207.13 592.699 1206.06 588.992 1206.06 584.882C1206.06 580.594 1207.09 576.842 1209.14 573.626C1211.28 570.41 1214.63 567.909 1219.19 566.122C1223.75 564.246 1229.69 563.308 1237.01 563.308H1256.17V575.502H1239.29C1234.38 575.502 1230.98 576.306 1229.11 577.914C1227.32 579.522 1226.43 581.532 1226.43 583.944C1226.43 586.624 1227.45 588.768 1229.51 590.376C1231.65 591.895 1234.56 592.654 1238.22 592.654C1241.7 592.654 1244.83 591.85 1247.6 590.242C1250.37 588.545 1252.38 586.088 1253.63 582.872L1256.84 592.52C1255.33 597.166 1252.56 600.694 1248.54 603.106C1244.52 605.518 1239.34 606.724 1232.99 606.724Z" fill="#00BD08"/>
<path d="M1152.91 605.652V533.56H1172.88V553.928L1170.07 548.032C1172.21 542.94 1175.65 539.099 1180.38 536.508C1185.12 533.828 1190.88 532.488 1197.67 532.488V551.784C1196.78 551.695 1195.97 551.65 1195.26 551.65C1194.54 551.561 1193.78 551.516 1192.98 551.516C1187.26 551.516 1182.62 553.169 1179.04 556.474C1175.56 559.69 1173.82 564.738 1173.82 571.616V605.652H1152.91Z" fill="#00BD08"/>
<path d="M1085.73 606.723C1078.94 606.723 1072.82 605.204 1067.37 602.167C1061.92 599.04 1057.59 594.707 1054.37 589.169C1051.25 583.63 1049.68 577.109 1049.68 569.605C1049.68 562.011 1051.25 555.445 1054.37 549.907C1057.59 544.368 1061.92 540.08 1067.37 537.043C1072.82 534.005 1078.94 532.487 1085.73 532.487C1091.8 532.487 1097.12 533.827 1101.68 536.507C1106.23 539.187 1109.76 543.251 1112.26 548.701C1114.76 554.15 1116.01 561.118 1116.01 569.605C1116.01 578.002 1114.81 584.97 1112.4 590.509C1109.98 595.958 1106.5 600.023 1101.94 602.703C1097.48 605.383 1092.07 606.723 1085.73 606.723ZM1089.35 589.571C1092.74 589.571 1095.82 588.767 1098.59 587.159C1101.36 585.551 1103.55 583.273 1105.16 580.325C1106.86 577.287 1107.71 573.714 1107.71 569.605C1107.71 565.406 1106.86 561.833 1105.16 558.885C1103.55 555.937 1101.36 553.659 1098.59 552.051C1095.82 550.443 1092.74 549.639 1089.35 549.639C1085.86 549.639 1082.74 550.443 1079.97 552.051C1077.2 553.659 1074.96 555.937 1073.27 558.885C1071.66 561.833 1070.86 565.406 1070.86 569.605C1070.86 573.714 1071.66 577.287 1073.27 580.325C1074.96 583.273 1077.2 585.551 1079.97 587.159C1082.74 588.767 1085.86 589.571 1089.35 589.571ZM1108.24 605.651V590.911L1108.64 569.471L1107.3 548.165V506.223H1128.21V605.651H1108.24Z" fill="#00BD08"/>
<path d="M1000.06 532.488C1005.78 532.488 1010.87 533.65 1015.34 535.972C1019.89 538.206 1023.47 541.69 1026.06 546.424C1028.65 551.07 1029.94 557.055 1029.94 564.38V605.652H1009.04V567.596C1009.04 561.79 1007.74 557.502 1005.15 554.732C1002.65 551.963 999.078 550.578 994.432 550.578C991.127 550.578 988.134 551.293 985.454 552.722C982.864 554.062 980.809 556.162 979.29 559.02C977.861 561.879 977.146 565.542 977.146 570.008V605.652H956.242V533.56H976.208V553.526L972.456 547.496C975.047 542.672 978.754 538.965 983.578 536.374C988.402 533.784 993.896 532.488 1000.06 532.488Z" fill="#00BD08"/>
<path d="M889.306 606.723C883.321 606.723 877.961 605.561 873.226 603.239C868.581 600.916 864.963 597.387 862.372 592.653C859.782 587.829 858.486 581.709 858.486 574.295V533.559H879.39V571.213C879.39 577.198 880.641 581.62 883.142 584.479C885.733 587.248 889.351 588.633 893.996 588.633C897.212 588.633 900.071 587.963 902.572 586.623C905.074 585.193 907.039 583.049 908.468 580.191C909.898 577.243 910.612 573.58 910.612 569.203V533.559H931.516V605.651H911.684V585.819L915.302 591.581C912.89 596.583 909.317 600.38 904.582 602.971C899.937 605.472 894.845 606.723 889.306 606.723Z" fill="#00BD08"/>
<path d="M791.221 554.062H836.245V571.482H791.221V554.062ZM792.829 605.652H771.121V511.852H842.007V529.272H792.829V605.652Z" fill="#00BD08"/>
</svg>
